<svg width="36" height="29" fill="none" xmlns="http://www.w3.org/2000/svg"><path d="M9.914 3.442C12.162 1.232 15.03.01 18 0c6.052 0 11.077 5.13 11.623 11.744C33.206 12.321 36 15.74 36 19.936c0 4.606-3.37 8.276-7.454 8.276H8.507C3.843 28.212 0 24.022 0 18.77c0-4.522 2.849-8.266 6.62-9.215.321-2.214 1.57-4.42 3.294-6.112zm1.469 1.941C9.68 7.058 8.789 9.077 8.789 10.656v1.15l-1.002.125c-3.143.393-5.537 3.334-5.537 6.838 0 3.762 2.768 6.878 6.257 6.878h20.039c2.909 0 5.204-2.595 5.204-5.711 0-3.119-2.295-5.714-5.204-5.714H27.42v-1.283C27.423 7.245 23.238 2.565 18 2.565c-2.43.01-4.777 1.011-6.617 2.821v-.003z" fill="#000"/></svg>