<svg width="38" height="38" fill="none" xmlns="http://www.w3.org/2000/svg"><path d="M30.626 7.592a2.566 2.566 0 00-.833.197c-.254.101-1.716.725-3.874 1.648a17788.6 17788.6 0 00-7.746 3.317c-5.563 2.383-11.03 4.728-11.03 4.728l.04-.015s-.33.11-.665.343a1.842 1.842 0 00-.494.487 1.28 1.28 0 00-.215.859c.143 1.154 1.34 1.482 1.34 1.482l.004.002 5.342 1.829c.136.454 1.62 5.407 1.946 6.455.18.58.35.915.525 1.143.088.114.18.203.283.267a.83.83 0 00.125.062h.002c.005.003.011.003.016.005l-.014-.003c.01.003.02.01.029.014.019.007.03.005.055.011.612.214 1.118-.182 1.118-.182l.021-.017 3.281-3.043 5.325 4.152.067.03c.932.414 1.776.183 2.242-.197.466-.38.65-.87.65-.87l.02-.05L32.1 9.85c.1-.456.115-.85.02-1.207a1.404 1.404 0 00-.612-.838 1.55 1.55 0 00-.88-.214zm.032 1.22a.548.548 0 01.234.024c.028.017.04.014.067.115.027.1.041.312-.032.643l-.002.007-3.89 20.276c-.01.02-.09.208-.276.359-.189.153-.399.273-.956.04l-5.823-4.541-.164-.13-.004.004-1.741-1.306 9.786-11.514a.6.6 0 00-.79-.888l-14.16 9.44-5.35-1.831s-.531-.296-.557-.502c-.001-.012-.008-.001.02-.042a.81.81 0 01.184-.171c.173-.12.373-.195.373-.195l.02-.007.02-.008s5.466-2.345 11.029-4.729c2.78-1.191 5.586-2.393 7.745-3.315a782.805 782.805 0 013.848-1.64c.15-.059.3-.084.419-.09zm-6.49 6.464l-7.422 8.731-.003.004a.614.614 0 00-.066.094.593.593 0 00-.078.23v.005l-.967 4.348c-.016-.047-.027-.065-.045-.12v-.001a1381.1 1381.1 0 01-1.9-6.303l10.48-6.988zm-6.584 10.162l1.334 1-1.96 1.817.626-2.817z" fill="#fff"/><rect x=".5" y=".5" width="37" height="37" rx="6.5" stroke="#fff"/></svg>